<?xml version="1.0" encoding="UTF-8" standalone="no"?>
<!-- Created with Inkscape (http://www.inkscape.org/) -->

<svg
   xmlns:dc="http://purl.org/dc/elements/1.1/"
   xmlns:cc="http://creativecommons.org/ns#"
   xmlns:rdf="http://www.w3.org/1999/02/22-rdf-syntax-ns#"
   xmlns:svg="http://www.w3.org/2000/svg"
   xmlns="http://www.w3.org/2000/svg"
   xmlns:sodipodi="http://sodipodi.sourceforge.net/DTD/sodipodi-0.dtd"
   xmlns:inkscape="http://www.inkscape.org/namespaces/inkscape"
   width="177.93764mm"
   height="177.93765mm"
   viewBox="0 0 630.48769 630.48774"
   id="svg2"
   version="1.1"
   inkscape:version="0.91 r13725"
   sodipodi:docname="inkVerb-disk-orange.svg">
  <defs
     id="defs4" />
  <sodipodi:namedview
     id="base"
     pagecolor="#ffffff"
     bordercolor="#666666"
     borderopacity="1.0"
     inkscape:pageopacity="0.0"
     inkscape:pageshadow="2"
     inkscape:zoom="0.80960718"
     inkscape:cx="249.08049"
     inkscape:cy="351.87282"
     inkscape:document-units="px"
     inkscape:current-layer="g3411"
     showgrid="false"
     inkscape:window-width="1689"
     inkscape:window-height="999"
     inkscape:window-x="70"
     inkscape:window-y="27"
     inkscape:window-maximized="0"
     showguides="true"
     inkscape:guide-bbox="true"
     inkscape:snap-path-mask="true"
     inkscape:snap-path-clip="true"
     objecttolerance="20"
     inkscape:snap-perpendicular="true"
     inkscape:snap-tangential="true"
     inkscape:snap-others="true"
     inkscape:snap-object-midpoints="true"
     inkscape:snap-bbox="true"
     inkscape:snap-bbox-midpoints="false"
     inkscape:object-paths="false"
     inkscape:snap-midpoints="false"
     inkscape:snap-bbox-edge-midpoints="false"
     inkscape:bbox-paths="false"
     inkscape:bbox-nodes="false"
     inkscape:snap-intersection-paths="false"
     inkscape:object-nodes="false"
     inkscape:snap-smooth-nodes="false"
     inkscape:snap-center="true"
     inkscape:snap-global="true"
     inkscape:snap-nodes="false"
     fit-margin-top="2"
     fit-margin-left="2"
     fit-margin-right="2"
     fit-margin-bottom="2" />
  <metadata
     id="metadata7">
    <rdf:RDF>
      <cc:Work
         rdf:about="">
        <dc:format>image/svg+xml</dc:format>
        <dc:type
           rdf:resource="http://purl.org/dc/dcmitype/StillImage" />
        <dc:title />
      </cc:Work>
    </rdf:RDF>
  </metadata>
  <g
     inkscape:label="orangedisk"
     id="g3411"
     inkscape:groupmode="layer"
     style="display:inline"
     transform="translate(-244.88995,-60.354792)">
    <path
       style="display:inline;fill:#ef7e2c;fill-opacity:1;fill-rule:nonzero;stroke:none;stroke-width:18.75;stroke-linecap:butt;stroke-linejoin:miter;stroke-miterlimit:4;stroke-dasharray:none;stroke-opacity:1"
       d="M 560.13281,67.441406 A 308.15698,308.15698 0 0 0 257.85156,317.0293 c 21.91247,10.38936 37.07052,32.70591 37.07032,58.56836 l -42.94532,0 a 308.15698,308.15698 0 0 0 0,0.002 l 42.94532,0 c 2e-4,25.91084 -15.21652,48.25903 -37.19532,58.62305 a 308.15698,308.15698 0 0 0 302.40625,249.5332 308.15698,308.15698 0 0 0 75.50781,-10.05078 90.366791,90.366791 0 0 1 -0.95117,-12.36133 90.366791,90.366791 0 0 1 90.36524,-90.36719 90.366791,90.366791 0 0 1 55.63086,19.28516 308.15698,308.15698 0 0 0 87.60547,-214.66406 308.15698,308.15698 0 0 0 -87.78321,-214.44141 90.366791,90.366791 0 0 1 -55.45312,19.06445 90.366791,90.366791 0 0 1 -90.36524,-90.367184 90.366791,90.366791 0 0 1 0.97852,-12.515625 308.15698,308.15698 0 0 0 -75.53516,-9.896485 z M 435.27539,123.60938 c 52.22255,63.94692 174.56474,174.93435 396.18359,177.69726 a 281.36072,281.36072 0 0 1 9.36719,61.10352 l -217.33594,0 a 64.788544,64.788544 0 0 0 -63.35742,-51.60157 64.788544,64.788544 0 0 0 -64.78906,64.78907 64.788544,64.788544 0 0 0 64.78906,64.78906 64.788544,64.788544 0 0 0 63.41797,-51.60156 l 217.49024,0 a 281.36072,281.36072 0 0 1 -9.58204,61.10351 c -221.6193,2.76291 -343.96122,113.75236 -396.18359,177.69922 a 281.36072,281.36072 0 0 1 -96.20508,-78.60156 204.85991,204.85991 0 0 0 95.92188,-173.38867 204.85991,204.85991 0 0 0 -95.99024,-173.25 281.36072,281.36072 0 0 1 96.27344,-78.73828 z M 323.23633,223.82227 a 178.20091,178.20091 0 0 1 85.09765,151.77539 178.20091,178.20091 0 0 1 -84.89843,151.5625 281.36072,281.36072 0 0 1 -35.59571,-82.1211 90.366791,90.366791 0 0 0 32.66016,-69.4414 90.366791,90.366791 0 0 0 -32.75195,-69.57422 281.36072,281.36072 0 0 1 35.48828,-82.20117 z"
       id="path3417"
       inkscape:connector-curvature="0" />
  </g>
</svg>
